<?xml version="1.0" standalone="no"?>
<!DOCTYPE svg PUBLIC "-//W3C//DTD SVG 20010904//EN"
 "http://www.w3.org/TR/2001/REC-SVG-20010904/DTD/svg10.dtd">
<svg version="1.0" xmlns="http://www.w3.org/2000/svg"
 width="1000.000000pt" height="1000.000000pt" viewBox="0 0 1000.000000 1000.000000"
 preserveAspectRatio="xMidYMid meet">

<g transform="translate(0.000000,1000.000000) scale(0.100000,-0.100000)"
fill="#FF6D00" stroke="none">
<path d="M5953 9980 c-3 -11 -9 -20 -14 -20 -5 0 -9 -9 -9 -20 0 -11 -3 -20
-8 -20 -8 0 -42 -73 -42 -90 0 -6 -4 -10 -9 -10 -5 0 -11 -8 -14 -17 -3 -10
-13 -29 -21 -43 -8 -14 -27 -50 -41 -80 -39 -82 -73 -152 -89 -180 -23 -42
-157 -302 -183 -355 -13 -27 -29 -59 -35 -70 -7 -11 -22 -42 -35 -70 -13 -27
-29 -59 -35 -70 -6 -11 -22 -42 -36 -70 -13 -27 -29 -59 -35 -70 -83 -151
-137 -260 -137 -274 0 -5 -3 -11 -7 -13 -12 -5 -63 -106 -63 -123 0 -8 -4 -15
-8 -15 -5 0 -14 -16 -22 -35 -8 -19 -17 -35 -21 -35 -5 0 -11 -16 -15 -35 -3
-19 -10 -35 -14 -35 -4 0 -10 -8 -13 -17 -3 -10 -13 -29 -21 -43 -8 -14 -25
-45 -36 -70 -11 -25 -29 -61 -40 -80 -11 -19 -20 -40 -20 -47 0 -7 -4 -13 -10
-13 -5 0 -10 -9 -10 -19 0 -11 -6 -26 -13 -33 -14 -14 -35 -53 -114 -213 -14
-27 -31 -61 -39 -75 -8 -14 -24 -45 -35 -70 -12 -25 -25 -52 -30 -60 -22 -38
-59 -118 -59 -127 0 -6 -9 -21 -19 -35 -11 -13 -23 -37 -26 -51 -4 -15 -11
-27 -15 -27 -4 0 -11 -11 -14 -24 -3 -14 -12 -31 -19 -38 -7 -7 -23 -38 -36
-68 -13 -30 -29 -62 -35 -70 -7 -8 -21 -35 -31 -60 -11 -25 -34 -69 -52 -98
-18 -29 -33 -57 -33 -63 0 -5 -11 -29 -24 -53 -13 -23 -28 -51 -34 -62 -6 -10
-19 -37 -28 -59 -10 -22 -25 -51 -34 -65 -10 -14 -21 -36 -25 -50 -4 -14 -10
-27 -14 -30 -3 -3 -16 -25 -27 -50 -12 -25 -31 -64 -43 -88 -11 -23 -21 -49
-21 -58 0 -8 -4 -13 -9 -10 -5 3 -14 -9 -21 -27 -6 -17 -18 -44 -26 -59 -8
-14 -14 -34 -14 -43 0 -9 -4 -14 -8 -11 -7 4 -41 -52 -42 -69 0 -3 -10 -22
-22 -42 -37 -65 -78 -153 -78 -167 0 -8 -6 -16 -14 -19 -8 -3 -17 -19 -21 -36
-4 -17 -11 -31 -15 -31 -5 0 -12 -16 -16 -35 -3 -20 -12 -35 -20 -35 -8 0 -14
-5 -14 -11 0 -11 -42 -102 -60 -129 -14 -23 -50 -107 -50 -119 0 -6 -4 -11 -9
-11 -10 0 -51 -79 -51 -97 0 -7 -6 -18 -13 -25 -22 -23 -55 -84 -62 -117 -4
-17 -10 -31 -15 -31 -4 0 -10 -8 -13 -17 -3 -10 -13 -29 -21 -43 -8 -14 -21
-38 -29 -55 -18 -39 -66 -133 -84 -165 -7 -14 -29 -59 -48 -100 -20 -41 -41
-84 -47 -95 -47 -83 -193 -371 -202 -402 -4 -11 -13 -24 -21 -27 -8 -3 -15
-12 -15 -21 0 -8 -9 -32 -20 -52 -11 -21 -20 -43 -20 -49 0 -7 -7 -14 -15 -18
-8 -3 -15 -11 -15 -18 -1 -7 -9 -31 -20 -53 -11 -22 -19 -50 -20 -62 l0 -23
815 0 815 0 12 28 c6 15 12 29 13 32 9 27 18 47 26 60 5 8 25 49 45 90 20 41
40 77 45 78 5 2 9 8 9 13 0 11 43 103 60 129 5 8 19 38 30 65 11 28 25 57 30
65 17 26 60 118 60 129 0 5 4 11 8 13 11 4 132 249 132 266 0 7 4 12 8 12 5 0
21 28 36 62 14 35 33 74 42 88 8 14 24 45 35 70 11 25 26 56 34 70 8 14 25 45
36 70 12 25 26 54 32 65 6 11 17 32 25 48 l13 27 255 0 c241 0 254 -1 254 -19
0 -10 -8 -29 -19 -42 -10 -13 -22 -39 -25 -56 -4 -18 -12 -33 -17 -33 -5 0 -9
-8 -9 -19 0 -10 -8 -29 -19 -42 -10 -13 -22 -35 -26 -49 -4 -14 -11 -29 -15
-35 -4 -5 -11 -25 -15 -42 -3 -18 -11 -33 -16 -33 -5 0 -12 -8 -16 -17 -9 -27
-41 -100 -78 -178 -18 -38 -39 -85 -46 -102 -8 -18 -17 -33 -21 -33 -5 0 -8
-5 -8 -10 0 -6 -16 -45 -35 -88 -20 -42 -45 -96 -55 -120 -11 -23 -20 -49 -20
-56 0 -8 -6 -16 -14 -19 -7 -3 -17 -18 -20 -34 -4 -15 -30 -73 -57 -129 -27
-55 -49 -108 -49 -117 0 -9 -5 -19 -11 -22 -5 -4 -21 -32 -35 -63 -14 -32 -29
-65 -34 -74 -6 -10 -10 -25 -10 -33 0 -13 210 -15 1900 -15 l1900 0 0 1590 0
1590 -895 0 -895 0 0 -830 0 -830 -630 0 -629 0 18 38 c10 20 35 73 56 117 22
44 40 86 41 94 2 8 6 17 11 20 4 3 16 22 25 41 9 19 44 92 77 162 34 70 61
132 61 138 0 5 5 10 10 10 6 0 10 6 10 13 0 11 26 66 57 122 11 18 65 133 114
239 10 22 23 48 29 56 5 8 21 40 35 70 14 30 32 66 40 80 8 14 15 33 15 43 0
9 4 17 9 17 5 0 12 13 16 30 4 16 11 32 16 36 10 6 49 83 49 97 0 5 15 34 33
66 19 31 37 70 41 86 4 17 13 37 21 45 7 8 27 49 44 90 18 41 35 77 40 80 4 3
18 32 31 65 13 33 30 67 36 75 7 8 24 45 39 83 15 37 31 67 36 67 5 0 9 6 9
13 0 7 24 60 53 117 29 58 60 123 70 145 9 22 23 51 31 65 8 14 25 48 38 75
13 28 29 59 36 70 6 11 22 45 36 77 14 31 30 59 35 63 6 3 11 14 11 23 1 9 9
35 20 57 11 22 19 45 20 51 0 7 7 14 15 18 8 3 15 10 15 16 0 13 36 97 50 120
15 23 60 118 60 126 0 4 6 15 14 23 7 9 26 48 41 86 15 39 33 77 39 85 7 8 23
40 35 70 13 30 29 62 36 70 6 8 23 42 36 75 12 33 28 67 35 75 15 19 54 105
54 119 0 6 4 11 8 11 7 0 25 35 62 120 6 14 21 44 34 68 14 23 27 56 31 72 4
17 11 30 16 30 5 0 9 9 9 20 0 11 3 20 8 20 8 0 42 73 42 90 0 6 5 10 10 10 6
0 10 9 10 20 0 11 3 20 8 20 4 0 13 15 21 33 7 17 20 45 27 61 8 16 14 33 14
38 0 5 9 18 20 30 11 12 20 29 20 38 0 9 7 25 15 36 8 10 15 27 15 37 0 16
-56 17 -1041 17 -1032 0 -1041 0 -1046 -20z"/>
<path d="M1073 2793 c3 -527 16 -803 38 -828 5 -5 9 -22 9 -38 0 -31 19 -105
31 -122 4 -5 10 -34 14 -62 4 -29 11 -55 15 -58 5 -3 11 -23 15 -44 4 -22 13
-45 20 -51 8 -6 17 -26 20 -43 3 -18 10 -41 15 -52 5 -11 14 -31 20 -45 5 -14
14 -32 20 -40 5 -8 21 -41 34 -72 14 -32 30 -58 35 -58 5 0 12 -13 16 -29 3
-16 13 -35 21 -42 8 -6 14 -16 14 -21 0 -11 42 -72 53 -76 4 -2 7 -9 7 -16 0
-7 12 -26 26 -42 14 -16 34 -41 43 -56 32 -50 145 -181 214 -247 87 -83 124
-116 147 -131 12 -8 40 -32 62 -52 22 -21 44 -38 49 -38 4 0 21 -12 36 -26 15
-15 40 -31 55 -36 16 -6 26 -13 23 -17 -2 -5 8 -14 23 -22 14 -8 59 -35 98
-62 40 -26 77 -47 83 -47 6 0 19 -8 29 -17 19 -19 69 -46 115 -62 15 -6 27
-15 27 -21 0 -5 5 -10 11 -10 5 0 31 -9 57 -21 26 -11 63 -27 82 -36 19 -8 48
-21 64 -29 16 -8 35 -14 41 -14 17 0 115 -29 137 -41 10 -5 27 -9 37 -9 11 0
22 -4 25 -9 3 -5 41 -12 83 -16 43 -4 84 -12 92 -18 10 -8 110 -13 327 -15
l312 -3 7 41 c4 22 11 43 16 46 12 7 59 111 59 130 0 8 4 14 8 14 4 0 20 28
35 63 15 34 34 73 41 87 14 25 43 83 64 130 7 14 16 32 22 40 11 18 50 106 50
115 0 4 7 13 15 21 8 9 15 24 15 33 0 10 7 24 15 31 8 7 15 17 15 22 0 5 18
46 40 90 22 45 40 87 40 93 0 7 6 18 14 24 8 7 18 26 21 42 4 16 11 29 16 29
5 0 9 5 9 12 0 15 52 122 62 126 4 2 8 9 8 15 0 7 18 48 40 92 22 44 40 87 40
97 0 9 3 18 8 20 11 5 62 106 62 123 0 8 4 15 9 15 5 0 12 12 16 27 3 14 15
38 26 51 10 14 19 33 19 43 0 10 4 20 9 24 5 3 13 19 16 36 4 17 16 40 26 50
10 10 19 25 19 33 0 13 35 86 60 126 17 27 50 109 50 123 0 8 7 17 15 21 8 3
15 11 15 18 1 7 9 31 20 53 11 22 19 45 20 51 0 7 7 14 15 18 8 3 15 11 15 18
1 7 9 31 20 53 11 22 19 46 20 53 0 7 7 15 15 18 8 3 17 21 21 40 3 19 10 34
15 34 4 0 11 15 15 34 3 19 12 37 20 40 8 3 14 11 14 18 1 7 9 31 20 53 11 22
19 46 20 53 0 6 4 12 8 12 13 0 64 117 60 137 -3 17 -18 18 -298 14 -162 -2
-527 -6 -810 -10 l-515 -6 -10 -30 c-5 -16 -12 -32 -16 -35 -3 -3 -36 -68 -73
-145 -37 -77 -85 -175 -106 -217 -22 -43 -36 -78 -32 -78 4 0 2 -4 -3 -8 -6
-4 -23 -34 -39 -67 -15 -33 -37 -78 -48 -100 -46 -88 -68 -135 -68 -145 0 -28
-25 -3 -51 53 -17 34 -37 73 -44 87 -8 14 -15 36 -15 50 0 15 -4 30 -9 35 -5
6 -14 75 -20 154 -6 80 -15 148 -21 151 -7 4 -12 147 -15 421 -2 228 -5 417
-5 422 0 4 -410 7 -910 7 l-910 0 3 -547z"/>
<path d="M7136 3331 c-3 -4 -8 -53 -12 -107 -4 -54 -10 -103 -14 -109 -5 -5
-14 -55 -21 -110 -7 -55 -15 -104 -19 -110 -4 -5 -11 -40 -15 -77 -3 -37 -11
-70 -16 -73 -5 -4 -9 -19 -9 -36 0 -16 -4 -38 -10 -49 -6 -11 -14 -29 -20 -40
-6 -11 -10 -27 -10 -36 0 -28 -91 -222 -127 -271 -12 -17 -23 -36 -23 -41 0
-6 -3 -12 -7 -14 -5 -1 -26 -25 -48 -53 -57 -71 -141 -152 -200 -189 -16 -11
-38 -28 -49 -38 -11 -10 -25 -18 -31 -18 -6 0 -35 -16 -65 -36 -29 -19 -67
-38 -84 -41 -17 -4 -42 -12 -56 -20 -14 -7 -31 -13 -39 -13 -8 0 -22 -6 -30
-14 -15 -13 -41 -19 -191 -46 -36 -6 -78 -16 -95 -22 -19 -7 -169 -13 -416
-16 l-386 -4 -20 -36 c-11 -21 -25 -46 -31 -57 -6 -11 -19 -38 -28 -60 -10
-22 -25 -51 -34 -65 -9 -14 -25 -50 -36 -80 -10 -30 -22 -56 -26 -58 -5 -2 -8
-10 -8 -18 0 -8 -4 -14 -9 -14 -5 0 -12 -16 -15 -35 -4 -19 -11 -35 -16 -35
-5 0 -12 -15 -16 -34 -3 -19 -12 -37 -20 -40 -8 -3 -14 -10 -14 -16 0 -12 -36
-97 -50 -120 -6 -8 -15 -26 -20 -40 -6 -14 -17 -37 -25 -52 -8 -14 -15 -33
-15 -42 0 -9 -4 -16 -8 -16 -4 0 -20 -28 -36 -63 -15 -34 -32 -70 -37 -79 -5
-10 -13 -26 -18 -35 -4 -10 -16 -32 -25 -50 -9 -17 -16 -38 -16 -46 0 -8 -9
-25 -19 -39 -11 -13 -23 -37 -26 -51 -4 -15 -11 -27 -15 -27 -4 0 -11 -16 -14
-35 -4 -19 -11 -35 -17 -35 -5 0 -14 -12 -19 -27 -6 -16 -15 -37 -20 -48 -5
-11 -14 -31 -20 -45 -5 -14 -14 -32 -20 -40 -5 -8 -19 -37 -30 -65 -11 -27
-25 -57 -30 -65 -23 -38 -58 -118 -65 -148 l-7 -33 1085 3 c798 2 1088 6 1098
15 8 6 49 14 92 18 42 4 80 11 83 16 3 5 18 9 34 9 16 0 31 4 34 9 3 5 20 11
38 14 50 9 151 33 168 40 8 3 34 11 57 17 23 6 54 17 70 25 15 8 38 15 50 15
12 0 24 4 27 9 3 5 21 12 40 15 19 4 37 13 40 21 3 8 11 15 18 15 7 1 31 9 53
20 22 11 46 19 53 20 6 0 12 5 12 10 0 6 12 15 28 21 49 17 97 44 113 62 9 9
22 17 28 17 11 0 77 45 91 61 3 3 26 18 53 33 26 15 47 31 47 34 0 4 18 18 40
32 22 13 40 30 40 36 0 7 9 16 21 19 24 8 59 40 59 55 0 6 6 10 14 10 16 0 66
45 66 60 0 5 4 10 9 10 12 0 71 59 71 71 0 5 5 9 10 9 6 0 21 11 33 24 104
115 144 161 157 180 8 12 24 31 35 42 11 12 27 31 35 43 27 40 89 126 103 141
8 8 22 31 33 50 10 19 33 58 51 86 17 28 35 63 38 77 4 15 10 27 14 27 7 0 27
42 68 140 8 19 23 53 34 75 10 22 21 52 25 68 3 15 10 30 15 33 5 3 9 18 9 35
0 16 5 29 10 29 6 0 10 11 10 25 0 14 4 25 9 25 5 0 12 25 16 55 3 30 11 57
16 60 5 4 9 19 9 35 0 16 5 32 10 35 6 3 10 17 10 30 0 13 4 26 9 29 5 3 12
34 16 68 4 35 10 68 14 73 11 18 55 277 70 420 6 55 11 216 11 358 l0 257
-889 0 c-490 0 -892 -4 -895 -9z"/>
</g>
</svg>
